<svg width="202" height="49" viewBox="0 0 202 49" fill="none" xmlns="http://www.w3.org/2000/svg">
<g clip-path="url(#clip0_2731_2500)">
<path d="M19.5524 48.2953H28.3818L18.6994 21.1191H9.67796L0 48.2953H8.66416L14.1038 29.2903L19.5524 48.2953Z" fill="#231815"/>
<path d="M43.8345 48.2953C45.9112 48.2953 47.6619 48.1124 49.091 47.7422C50.5157 47.3675 51.6769 46.8903 52.5656 46.2971C53.4544 45.7083 54.2851 44.8966 55.0309 43.8797C55.7857 42.8583 56.4288 41.538 56.9468 39.9413C57.4694 38.349 57.7329 36.5381 57.7329 34.5132C57.7329 31.5159 57.1567 28.9825 56.0045 26.8951C54.8433 24.8077 53.2623 23.3314 51.2571 22.4438C49.2518 21.5696 46.8535 21.1191 44.0622 21.1191H31.7314V48.2908H43.8345M40.4135 27.8853H42.7314C44.3659 27.8853 45.5673 28.0637 46.3578 28.4071C46.9116 28.6346 47.3939 29.0405 47.7825 29.5846C48.171 30.1377 48.4702 30.8469 48.6935 31.73C48.8945 32.5908 49.0062 33.523 49.0062 34.4998C49.0062 36.0966 48.7784 37.4302 48.3273 38.5051C47.8718 39.5755 47.2287 40.3427 46.3801 40.8244C45.5494 41.2883 44.2989 41.5291 42.651 41.5291L40.4135 41.5425V27.8808V27.8853Z" fill="#231815"/>
<path d="M84.2564 28.9602H75.8334C75.628 28.1619 75.2529 27.5776 74.7035 27.1762C74.1453 26.7837 73.3548 26.5785 72.3231 26.5785C71.2915 26.5785 70.5546 26.7926 70.0186 27.1985C69.6167 27.5196 69.4157 27.9166 69.4157 28.4295C69.4157 28.8398 69.572 29.2011 69.8668 29.4509C70.2955 29.83 71.287 30.218 72.8724 30.5838L76.3247 31.4401C79.5045 32.2073 81.7554 33.309 83.0372 34.7318C84.319 36.159 84.971 37.8004 84.971 39.6782C84.971 41.1813 84.6361 42.5327 83.9706 43.7637C83.3052 44.9992 82.4923 45.9626 81.5187 46.6762C80.5496 47.3943 79.2946 47.9652 77.7494 48.3711C76.2041 48.7948 74.5919 49 72.8858 49C71.0146 49 69.2639 48.7592 67.6248 48.2775C65.9813 47.7824 64.6326 47.091 63.5696 46.1722C62.5022 45.2668 61.6984 44.2142 61.1535 43.0144C60.7649 42.1625 60.5015 41.1099 60.3496 39.8699H68.8709C69.0718 40.7308 69.505 41.3998 70.1615 41.8637C70.8136 42.3186 71.8274 42.555 73.194 42.555C74.3954 42.555 75.2529 42.3543 75.7709 41.9529C76.1595 41.654 76.3515 41.2303 76.3515 40.6995C76.3515 40.1688 76.1729 39.7094 75.8201 39.3749C75.4628 39.0359 74.4981 38.6568 72.8948 38.2821L69.8132 37.5149C68.192 37.1358 66.6691 36.5872 65.2533 35.8959C63.8376 35.2046 62.7657 34.3214 62.0378 33.2465C61.3321 32.1627 60.9749 30.838 60.9749 29.2903C60.9749 27.7426 61.2875 26.4179 61.9351 25.2315C62.5916 24.0495 63.458 23.0861 64.5432 22.3725C65.624 21.641 66.8388 21.1236 68.1831 20.8293C69.514 20.5393 70.8984 20.3877 72.3053 20.3877C74.0068 20.3877 75.5432 20.5572 76.95 20.9006C78.3568 21.2441 79.4733 21.6856 80.304 22.2521C81.1347 22.8051 81.818 23.4429 82.3316 24.1566C82.863 24.8747 83.2605 25.6017 83.5687 26.3421C83.859 27.0914 84.0912 27.9656 84.2564 28.9692" fill="#231815"/>
<path d="M89.4951 48.2953V21.1191H98.3335V41.1946H110.53V48.2953H89.4951Z" fill="#231815"/>
<path d="M131.973 48.2953H140.824L131.133 21.1191H122.112L112.434 48.2953H121.111L126.537 29.2903L131.973 48.2953Z" fill="#231815"/>
<path d="M144.58 48.2953V21.1191H152.842L162.163 35.6639V21.1191H170.675V48.2953H162.221L153.106 34.0984V48.2953H144.58Z" fill="#231815"/>
<path d="M188.102 48.2953C190.174 48.2953 191.925 48.1124 193.349 47.7422C194.778 47.3675 195.926 46.8903 196.819 46.2971C197.713 45.7083 198.534 44.8966 199.289 43.8797C200.053 42.8583 200.687 41.538 201.205 39.9413C201.728 38.349 201.996 36.5381 201.996 34.5132C201.996 31.5159 201.415 28.9825 200.254 26.8951C199.097 24.8077 197.521 23.3314 195.515 22.4438C193.51 21.5696 191.107 21.1191 188.316 21.1191H175.994V48.2908H188.093M184.649 27.8853H186.972C188.611 27.8853 189.834 28.0637 190.603 28.4071C191.161 28.6346 191.643 29.0405 192.036 29.5846C192.429 30.1377 192.724 30.8469 192.938 31.73C193.139 32.5908 193.264 33.523 193.264 34.4998C193.264 36.0966 193.028 37.4302 192.577 38.5051C192.13 39.5755 191.469 40.3427 190.625 40.8244C189.799 41.2883 188.553 41.5291 186.909 41.5291L184.649 41.5425V27.8808V27.8853Z" fill="#231815"/>
<path d="M10.3121 5.4859C10.3121 8.2557 8.30688 9.93274 4.98413 9.93274H1.82662V13.7953H0V1.03906H4.98413C8.30688 1.03906 10.3121 2.71611 10.3121 5.4859ZM8.48552 5.4859C8.48552 3.66167 7.26182 2.62244 4.92607 2.62244H1.82215V8.3449H4.92607C7.26182 8.3449 8.48552 7.30567 8.48552 5.48144V5.4859Z" fill="#231815"/>
<path d="M18.6327 4.0459V5.74078C18.4853 5.72294 18.3602 5.72294 18.2307 5.72294C16.3505 5.72294 15.1804 6.86922 15.1804 8.98782V13.8004H13.4297V4.13956H15.1089V5.76308C15.7297 4.63465 16.9355 4.05036 18.6327 4.05036V4.0459Z" fill="#231815"/>
<path d="M21.334 1.14628C21.334 0.508465 21.8476 0 22.522 0C23.1963 0 23.7099 0.490624 23.7099 1.1106C23.7099 1.76625 23.2187 2.27917 22.522 2.27917C21.8253 2.27917 21.334 1.78855 21.334 1.15074V1.14628ZM21.6421 4.13463H23.3928V13.7955H21.6421V4.13909V4.13463Z" fill="#231815"/>
<path d="M36.7735 8.23795V13.7954H35.0228V8.4342C35.0228 6.53861 34.0715 5.60642 32.4146 5.60642C30.5522 5.60642 29.3464 6.71702 29.3464 8.81332V13.7909H27.5957V4.13901H29.2749V5.5975C29.985 4.61179 31.2266 4.0498 32.7629 4.0498C35.1166 4.0498 36.7779 5.39679 36.7779 8.24241L36.7735 8.23795Z" fill="#231815"/>
<path d="M46.3179 13.2339C45.7864 13.6889 44.987 13.9074 44.201 13.9074C42.2493 13.9074 41.1328 12.8325 41.1328 10.8834V5.58019H39.4893V4.13954H41.1328V2.02539H42.8835V4.13954H45.6569V5.58019H42.8835V10.812C42.8835 11.8513 43.4328 12.4355 44.3975 12.4355C44.9066 12.4355 45.4023 12.2705 45.7685 11.9806L46.3179 13.2384V13.2339Z" fill="#231815"/>
<path d="M65.6246 5.4859C65.6246 8.2557 63.6194 9.93274 60.2966 9.93274H57.1391V13.7953H55.3125V1.03906H60.2966C63.6194 1.03906 65.6246 2.71611 65.6246 5.4859ZM63.798 5.4859C63.798 3.66167 62.5743 2.62244 60.2386 2.62244H57.1347V8.3449H60.2386C62.5743 8.3449 63.798 7.30567 63.798 5.48144V5.4859Z" fill="#231815"/>
<path d="M69.0898 0.272461H70.8405V13.7959H69.0898V0.272461Z" fill="#231815"/>
<path d="M82.707 7.96588V13.7999H81.0457V12.5242C80.4606 13.3984 79.3843 13.9114 77.8703 13.9114C75.6819 13.9114 74.293 12.7428 74.293 11.0657C74.293 9.51804 75.2978 8.24241 78.1784 8.24241H80.9519V7.89452C80.9519 6.41818 80.0944 5.56182 78.3616 5.56182C77.2138 5.56182 76.0437 5.96324 75.2934 6.60105L74.5654 5.28975C75.5703 4.48691 77.0128 4.0498 78.5625 4.0498C81.2109 4.0498 82.707 5.32543 82.707 7.97034V7.96588ZM80.9563 10.8472V9.5002H78.2544C76.5215 9.5002 76.0258 10.1737 76.0258 10.9944C76.0258 11.9622 76.8297 12.5644 78.1606 12.5644C79.4915 12.5644 80.5142 11.9622 80.9519 10.8516L80.9563 10.8472Z" fill="#231815"/>
<path d="M92.2515 13.2339C91.72 13.6889 90.9206 13.9074 90.1345 13.9074C88.1829 13.9074 87.0664 12.8325 87.0664 10.8834V5.58019H85.4229V4.13954H87.0664V2.02539H88.8171V4.13954H91.5905V5.58019H88.8171V10.812C88.8171 11.8513 89.3664 12.4355 90.331 12.4355C90.8402 12.4355 91.3359 12.2705 91.7021 11.9806L92.2515 13.2384V13.2339Z" fill="#231815"/>
<path d="M97.1954 3.30015V4.13867H100.005V5.57933H97.2311V13.7995H95.4804V5.57487H93.8369V4.13421H95.4804V3.27785C95.4804 1.4001 96.6103 0.160156 98.6737 0.160156C99.424 0.160156 100.152 0.343025 100.643 0.726604L100.116 2.05575C99.75 1.78368 99.2766 1.60081 98.763 1.60081C97.7224 1.60081 97.1954 2.1851 97.1954 3.29569V3.30015Z" fill="#231815"/>
<path d="M101.482 8.96943C101.482 6.08813 103.617 4.0498 106.52 4.0498C109.423 4.0498 111.54 6.09259 111.54 8.96943C111.54 11.8463 109.423 13.9114 106.52 13.9114C103.617 13.9114 101.482 11.8507 101.482 8.96943ZM109.771 8.96943C109.771 6.90881 108.382 5.57966 106.525 5.57966C104.667 5.57966 103.255 6.90881 103.255 8.96943C103.255 11.0301 104.662 12.377 106.525 12.377C108.387 12.377 109.771 11.0256 109.771 8.96943Z" fill="#231815"/>
<path d="M120.025 4.0459V5.74078C119.878 5.72294 119.753 5.72294 119.623 5.72294C117.743 5.72294 116.573 6.86922 116.573 8.98782V13.8004H114.822V4.13956H116.501V5.76308C117.122 4.63465 118.328 4.05036 120.025 4.05036V4.0459Z" fill="#231815"/>
<path d="M139.095 8.23795V13.7954H137.344V8.4342C137.344 6.53861 136.433 5.60642 134.843 5.60642C133.093 5.60642 131.94 6.71702 131.94 8.81332V13.7909H130.19V8.42974C130.19 6.53415 129.279 5.60196 127.689 5.60196C125.938 5.60196 124.786 6.71256 124.786 8.80886V13.7865H123.035V4.13901H124.714V5.57966C125.407 4.59395 126.595 4.0498 128.055 4.0498C129.515 4.0498 130.775 4.63409 131.413 5.83389C132.141 4.74114 133.495 4.0498 135.138 4.0498C137.492 4.0498 139.1 5.39679 139.1 8.24241L139.095 8.23795Z" fill="#231815"/>
</g>
<defs>
<clipPath id="clip0_2731_2500">
<rect width="202" height="49" fill="white"/>
</clipPath>
</defs>
</svg>
