<svg width="146" height="34" viewBox="0 0 146 34" fill="none" xmlns="http://www.w3.org/2000/svg">
<path d="M130.032 19.9318C130.032 14.2492 126.861 12.263 123.138 12.263C120.916 12.263 118.391 13.2561 117.289 15.3342V12.9619H108.819V32.7498H117.289V22.6352C117.289 20.649 118.011 19.7295 119.264 19.564C120.764 19.4169 121.79 20.1709 121.79 22.6352V32.7498H130.032V19.9502V19.9318ZM68.7295 32.7314H77.3514V24.1432H83.2955V16.8606H77.3514V12.9435H84.6439V5.20117H72.7746C70.3247 5.20117 68.7295 6.72757 68.7295 8.95279V32.713V32.7314ZM132.482 29.6786C132.482 31.4441 133.83 32.7498 135.881 32.7498H145.453V25.2282H140.857V20.3915H145.453V12.9619H140.857V8.05167H132.463V29.6786H132.482ZM92.9049 22.6903C92.9049 20.9249 94.1013 19.6192 95.9054 19.6192C97.7096 19.6192 98.906 20.9249 98.906 22.6903C98.906 24.4558 97.7096 25.7615 95.9054 25.7615C94.1013 25.7615 92.9049 24.4558 92.9049 22.6903ZM84.7388 22.6903C84.7388 29.0534 89.2586 33.5038 95.9054 33.5038C102.552 33.5038 107.072 29.0534 107.072 22.6903C107.072 16.3273 102.552 11.8768 95.9054 11.8768C89.2586 11.8768 84.7388 16.3273 84.7388 22.6903Z" fill="#1C1C1C"/>
<path d="M60.2391 22.3959L67.1328 12.9617H56.6118L54.162 17.0995L51.6362 12.9617H41.1912L48.2368 22.3959L39.615 32.2899V12.9617H30.2715V32.2899L21.6496 21.458C25.5237 19.6926 27.8216 15.8122 27.8216 11.8215C27.8216 5.2194 23.4727 1.57812 15.4776 1.57812H0V32.7496H9.34351V23.2235H12.9898L19.0858 32.7496H50.7626L54.162 27.4532L57.5613 32.7496H68.4811L60.2391 22.3959ZM15.0408 15.7019H9.34351V9.08136H15.0408C16.8639 9.08136 17.9654 10.5158 17.9654 12.2813C17.9654 14.2674 16.617 15.7019 15.0408 15.7019Z" fill="#1C1C1C"/>
<path d="M35.1352 10.862C38.1978 10.862 40.6805 8.45778 40.6805 5.49203C40.6805 2.52628 38.1978 0.12207 35.1352 0.12207C32.0726 0.12207 29.5898 2.52628 29.5898 5.49203C29.5898 8.45778 32.0726 10.862 35.1352 10.862Z" fill="#1C1C1C"/>
</svg>
