<svg width="182" height="33" viewBox="0 0 182 33" fill="none" xmlns="http://www.w3.org/2000/svg">
<g clip-path="url(#clip0_2731_2489)">
<path d="M28.0998 0.952148L17.5318 20.414V32.1321H10.9302V20.414L0 0.952148H7.78017L14.3387 14.5328L20.6192 0.952148H28.0998Z" fill="black"/>
<path d="M53.8662 18.509H38.5192V26.5252H56.0099V32.1302H32.0684V0.952148H55.2385V6.47405H38.5192V13.0953H53.8662V18.5109V18.509Z" fill="black"/>
<path d="M72.2712 27.6273C73.7865 27.6273 75.0179 27.4573 75.9635 27.1192C77.7568 26.47 78.6535 25.2644 78.6535 23.5023C78.6535 22.4725 78.2091 21.6765 77.3183 21.1123C76.4275 20.5617 75.0316 20.0767 73.1267 19.6536L69.8729 18.9136C66.6739 18.1794 64.4636 17.3834 63.24 16.5236C61.1687 15.0862 60.133 12.8353 60.133 9.77488C60.133 6.98302 61.1334 4.66258 63.1362 2.81551C65.1371 0.966505 68.0796 0.0429688 71.9579 0.0429688C75.198 0.0429688 77.9624 0.914339 80.2491 2.65515C82.5358 4.39595 83.7359 6.92505 83.8475 10.2386H77.6727C77.5611 8.36252 76.7545 7.02939 75.2529 6.24109C74.2524 5.71943 73.0073 5.4586 71.5194 5.4586C69.8651 5.4586 68.5436 5.79672 67.5569 6.47488C66.5702 7.15111 66.0768 8.0959 66.0768 9.30925C66.0768 10.4241 66.5643 11.2549 67.5373 11.8055C68.1638 12.1726 69.497 12.6015 71.5429 13.0961L76.8406 14.3868C79.1625 14.9509 80.9147 15.7044 82.0972 16.6492C83.9336 18.1157 84.8498 20.239 84.8498 23.0155C84.8498 25.7919 83.775 28.2301 81.6274 30.112C79.4797 31.9938 76.4451 32.9367 72.5237 32.9367C68.6023 32.9367 65.37 32.0093 63.0755 30.1545C60.781 28.2997 59.6338 25.7513 59.6338 22.5073H65.7655C65.9593 23.9313 66.3431 24.9958 66.9128 25.701C67.9563 26.984 69.7417 27.6254 72.2731 27.6254L72.2712 27.6273Z" fill="black"/>
<path d="M102.808 33C98.2938 33 94.8422 31.7866 92.4557 29.3619C89.2548 26.3865 87.6553 22.0992 87.6553 16.5C87.6553 10.9008 89.2548 6.50146 92.4557 3.63811C94.8422 1.21335 98.2938 0 102.808 0C107.323 0 110.775 1.21335 113.161 3.63811C116.348 6.50146 117.942 10.7888 117.942 16.5C117.942 22.2112 116.348 26.3865 113.161 29.3619C110.775 31.7866 107.323 33 102.808 33ZM109.046 24.6225C110.575 22.7194 111.338 20.0106 111.338 16.5C111.338 12.9894 110.571 10.298 109.034 8.38718C107.497 6.47635 105.422 5.51996 102.806 5.51996C100.191 5.51996 98.1058 6.47248 96.5475 8.37558C94.9891 10.2787 94.2118 12.9875 94.2118 16.4981C94.2118 20.0087 94.991 22.7174 96.5475 24.6206C98.1058 26.5237 100.191 27.4762 102.806 27.4762C105.422 27.4762 107.501 26.5237 109.044 24.6206L109.046 24.6225Z" fill="black"/>
<path d="M136.59 32.1321H122.979V0.952148H136.59C138.548 0.98113 140.177 1.20525 141.476 1.62838C143.691 2.34711 145.484 3.66673 146.856 5.58335C147.957 7.13482 148.707 8.81187 149.108 10.6184C149.507 12.4229 149.709 14.1444 149.709 15.779C149.709 19.9252 148.865 23.4358 147.179 26.3127C144.893 30.1904 141.363 32.1302 136.59 32.1302V32.1321ZM141.498 8.90654C140.484 7.21403 138.475 6.36778 135.474 6.36778H129.387V26.7165H135.474C138.589 26.7165 140.762 25.1998 141.989 22.1684C142.661 20.5048 142.998 18.5225 142.998 16.2233C142.998 13.0509 142.498 10.6106 141.498 8.90461V8.90654Z" fill="black"/>
<path d="M161.154 3.59354H159.662V10.9548H157.107V3.59354H151.812V1.42188H161.154V3.59354Z" fill="black"/>
<path d="M165.48 1.42188V10.9548H162.851V1.42188H165.48Z" fill="black"/>
<path d="M167.437 6.26226C167.437 4.7533 167.897 3.53222 168.817 2.59902C169.737 1.66776 170.935 1.2002 172.415 1.2002C173.895 1.2002 175.097 1.66003 176.023 2.5797C176.949 3.49938 177.411 4.68954 177.411 6.1502C177.411 7.61085 176.951 8.75078 176.031 9.71876C175.111 10.6887 173.911 11.1736 172.431 11.1736C170.951 11.1736 169.749 10.7196 168.825 9.8115C167.897 8.90342 167.435 7.72098 167.435 6.26032L167.437 6.26226ZM170.066 6.18884C170.066 7.0718 170.283 7.78087 170.718 8.31413C171.152 8.84739 171.724 9.11401 172.433 9.11401C173.141 9.11401 173.725 8.84739 174.15 8.31413C174.571 7.78087 174.784 7.066 174.784 6.16952C174.784 5.27303 174.569 4.58134 174.14 4.05388C173.711 3.52642 173.141 3.26173 172.433 3.26173C171.65 3.26173 171.06 3.54768 170.661 4.11764C170.264 4.68761 170.064 5.37736 170.064 6.18884H170.066Z" fill="black"/>
<path d="M182 1.42188V6.73897H179.371V1.42188H182Z" fill="black"/>
</g>
<defs>
<clipPath id="clip0_2731_2489">
<rect width="182" height="33" fill="white"/>
</clipPath>
</defs>
</svg>
