<svg width="250" height="45" viewBox="0 0 250 45" fill="none" xmlns="http://www.w3.org/2000/svg">
<path d="M21.3357 2.89551L17.0958 11.1428C15.9578 13.3823 15.2052 16.244 15.1685 16.4751C15.0768 16.1018 14.4711 13.4179 13.3331 11.1961L9.03805 2.91328H0.337891L11.259 21.4163V33.3073H19.0781V21.4163L29.9625 2.91328H21.3541L21.3357 2.89551Z" fill="#1C1C1C"/>
<path d="M38.995 10.8232C31.2309 10.8232 26.6973 15.2846 26.6973 22.6609C26.6973 29.9484 31.1758 34.1431 38.6646 34.1431C46.3002 34.1431 50.8155 29.7706 50.8155 22.4832C50.8155 15.3735 46.4837 10.8232 38.995 10.8232ZM38.7747 29.6462C35.7095 29.6462 34.2594 27.1934 34.2594 22.5365C34.2594 17.8796 35.7095 15.3735 38.7747 15.3735C41.9317 15.3735 43.3451 17.8796 43.3451 22.572C43.3451 27.2645 41.84 29.6284 38.7747 29.6284V29.6462Z" fill="#1C1C1C"/>
<path d="M66.2108 10.8232C58.4467 10.8232 53.9131 15.2846 53.9131 22.6609C53.9131 29.9484 58.3917 34.1431 65.8804 34.1431C73.4976 34.1431 78.0313 29.7706 78.0313 22.4832C78.0313 15.1957 73.6995 10.8232 66.2108 10.8232ZM65.9905 29.6462C62.9253 29.6462 61.4752 27.1934 61.4752 22.5365C61.4752 18.0218 62.9436 15.3735 65.9905 15.3735C69.1476 15.3735 70.5609 17.8796 70.5609 22.572C70.5609 27.1223 69.0558 29.6284 65.9905 29.6284V29.6462Z" fill="#1C1C1C"/>
<path d="M96.735 11.1084C92.9722 11.1084 90.5127 13.2058 89.6317 15.1254L89.4848 11.7127H82.7119V33.3085H90.0171V20.1911C90.0171 17.6316 91.1551 15.8719 93.7431 15.8719C96.0558 15.8719 97.0837 17.1517 97.0837 19.6934V33.3085H104.389V19.0891C104.389 13.8101 101.379 11.1084 96.7533 11.1084H96.735Z" fill="#1C1C1C"/>
<path d="M125.282 11.1076C125.282 12.4229 125.429 13.6671 125.521 14.4847C124.915 13.2582 122.51 10.8409 118.748 10.8409C112.819 10.8409 108.946 15.6756 108.946 22.7853C108.946 29.5217 112.672 33.8942 118.362 33.8942C121.795 33.8942 124.199 32.4367 125.576 30.1083L125.759 33.2899H132.495V0.123047H125.3V11.0898L125.282 11.1076ZM120.859 29.6461C118.032 29.6461 116.38 26.9622 116.38 22.6253C116.38 18.164 118.032 15.48 120.895 15.48C123.905 15.48 125.374 17.9329 125.374 22.4476C125.374 26.9622 123.814 29.6461 120.859 29.6461Z" fill="#1C1C1C"/>
<path d="M148.918 10.8271C141.576 10.8271 137.152 15.2885 137.152 22.6648C137.152 30.0412 141.429 34.147 148.881 34.147C154.479 34.147 158.774 31.8186 159.894 26.7707H152.497C151.928 28.637 151.047 29.5079 148.918 29.5079C145.1 29.5079 144.641 26.1841 144.641 23.5358H160.279C160.279 23.0381 160.334 22.6648 160.334 22.3982C160.334 15.1108 155.819 10.8271 148.936 10.8271H148.918ZM144.825 19.892C145.21 16.4261 146.477 14.933 148.881 14.933C151.286 14.933 152.552 16.4794 152.699 19.892H144.843H144.825Z" fill="#1C1C1C"/>
<path d="M177.845 21.0257L175.055 20.0659C171.807 18.9639 171.146 18.1996 171.146 16.7776C171.146 15.5512 172.137 14.8225 173.697 14.8225C175.441 14.8225 176.432 15.8711 176.561 18.0218H183.444C183.113 15.2846 181.883 10.8232 173.734 10.8232C168.044 10.8232 164.281 13.4716 164.281 17.5242C164.281 20.5813 166.025 22.3054 170.026 23.7274L173.422 24.9183C175.918 25.8247 176.616 26.5535 176.616 27.8332C176.616 29.0241 175.771 30.0195 173.734 30.0195C171.293 30.0195 170.76 28.3842 170.54 26.4646H163.382C163.896 31.6192 167.108 34.1609 173.642 34.1609C179.571 34.1609 183.535 31.6014 183.535 27.3356C183.535 24.3672 181.994 22.4654 177.845 21.0435V21.0257Z" fill="#1C1C1C"/>
<path d="M210.609 10.874C209.802 10.874 208.535 10.9273 207.508 11.1051C203.745 11.7805 200.019 13.9312 200.019 18.9436C200.019 22.4451 201.818 24.6846 204.497 25.8222C204.204 25.9644 201.487 27.2797 201.487 29.4126C201.487 32.292 204.919 33.0208 205.066 33.0563C204.773 33.1097 199.229 34.0161 199.229 38.4775C199.229 43.5787 205.874 45.0007 211.142 45.0007C216.832 45.0007 223.898 42.9922 223.898 37.3044C223.898 31.4744 218.575 30.3369 213.197 29.7325L210.334 29.4126C207.746 29.146 207.085 28.7372 207.085 27.8662C207.085 27.2264 207.416 26.9064 207.746 26.7287C208.682 26.8709 209.765 26.9064 210.72 26.9064C215.565 26.9064 221.163 24.8979 221.163 19.4412C221.163 16.7929 219.805 15.6553 219.805 15.6553C219.805 15.6553 220.741 15.9219 222.595 15.9219H224.339V11.6916H215.492C214.079 11.1406 212.151 10.874 210.646 10.874H210.609ZM208.829 34.2828L211.986 34.6916C215.657 35.1537 217.015 35.918 217.015 37.6599C217.015 39.7928 214.372 40.7526 211.362 40.7526C208.48 40.7526 205.856 39.7572 205.856 37.3399C205.856 34.9226 208.829 34.2828 208.829 34.2828ZM210.609 22.9428C208.829 22.9428 207.361 21.8941 207.361 18.9258C207.361 15.9575 208.774 14.731 210.609 14.731C212.537 14.731 214.005 15.9575 214.005 18.9258C214.005 21.8941 212.5 22.9428 210.609 22.9428Z" fill="#1C1C1C"/>
<path d="M242.036 11.1084C238.273 11.1084 235.813 13.2058 234.932 15.1254L234.786 11.7127H228.013V33.3085H235.318V20.1911C235.318 17.6316 236.456 15.8719 239.044 15.8719C241.357 15.8719 242.384 17.1517 242.384 19.6934V33.3085H249.69V19.0891C249.69 13.8101 246.679 11.1084 242.054 11.1084H242.036Z" fill="#1C1C1C"/>
<path d="M191.429 0.142578C189.025 0.142578 187.079 2.02665 187.079 4.35509C187.079 6.68352 189.025 8.56759 191.429 8.56759C193.834 8.56759 195.779 6.68352 195.779 4.35509C195.779 2.02665 193.834 0.142578 191.429 0.142578Z" fill="#1C1C1C"/>
<path d="M195.079 11.6924H187.773V33.2881H195.079V11.6924Z" fill="#1C1C1C"/>
</svg>
