<svg width="157" height="33" viewBox="0 0 157 33" fill="none" xmlns="http://www.w3.org/2000/svg">
<rect y="4.64844" width="48.0296" height="15.4934" fill="#00FF36"/>
<rect x="108.969" y="15.4941" width="48.0296" height="17.0428" fill="#00FF36"/>
<rect x="48.0312" y="12.3945" width="26.8553" height="15.4934" fill="#00FF36"/>
<rect x="74.8828" y="1.0332" width="34.0855" height="18.0757" fill="#00FF36"/>
<path d="M2.88268 7.85033H4.40075L6.63196 15.7726L8.63723 7.85033H9.75284L11.751 15.7726L13.9752 7.85033H15.4933L12.3865 18.1309H11.0379L9.18797 10.4558L7.32392 18.1309H5.99649L2.88268 7.85033ZM17.5127 18.1309H16.1146V7.85033H17.5127V11.2466C17.7386 10.9124 18.0305 10.6605 18.3882 10.4911C18.7507 10.3216 19.1719 10.2369 19.6521 10.2369C20.5935 10.2369 21.3255 10.5381 21.848 11.1407C22.3705 11.7432 22.6317 12.5881 22.6317 13.6755V18.1309H21.2337V14.1274C21.2337 13.266 21.0878 12.6258 20.7959 12.2068C20.5041 11.7879 20.0569 11.5784 19.4544 11.5784C19.0872 11.5784 18.7624 11.6632 18.48 11.8326C18.1976 12.0021 17.9716 12.2469 17.8022 12.5669C17.6986 12.7599 17.6233 12.9953 17.5762 13.273C17.5338 13.5508 17.5127 13.9932 17.5127 14.6005V18.1309ZM30.3351 13.506C30.1609 12.8659 29.8596 12.3716 29.4313 12.0233C29.0029 11.6702 28.4899 11.4937 27.892 11.4937C27.2801 11.4937 26.7482 11.6749 26.2963 12.0374C25.8491 12.3951 25.5408 12.8847 25.3713 13.506H30.3351ZM25.329 14.7629C25.4466 15.4125 25.7385 15.9397 26.2045 16.3445C26.6752 16.7446 27.233 16.9446 27.8779 16.9446C28.3392 16.9446 28.7582 16.834 29.1347 16.6128C29.516 16.3915 29.8196 16.0785 30.0456 15.6737H31.6201C31.2624 16.5351 30.7611 17.1941 30.1162 17.6507C29.476 18.1073 28.7299 18.3356 27.8779 18.3356C27.3036 18.3356 26.7788 18.2344 26.3034 18.032C25.8279 17.8296 25.3972 17.526 25.0112 17.1212C24.6488 16.7399 24.364 16.2974 24.1569 15.7937C23.9545 15.2854 23.8533 14.7676 23.8533 14.2404C23.8533 13.6943 23.9451 13.1836 24.1286 12.7082C24.3169 12.2327 24.5923 11.7997 24.9547 11.409C25.3407 10.9853 25.7762 10.6676 26.261 10.4558C26.7458 10.2392 27.2754 10.131 27.8497 10.131C28.5322 10.131 29.1653 10.291 29.749 10.6111C30.3374 10.9265 30.8223 11.369 31.2036 11.9385C31.4295 12.2916 31.5966 12.6799 31.7049 13.1036C31.8131 13.5225 31.8673 14.0026 31.8673 14.544V14.7629H25.329ZM34.501 18.1309H33.1029V10.364H34.4162V11.2607C34.6469 10.9171 34.9105 10.6629 35.207 10.4981C35.5083 10.3287 35.8566 10.2416 36.252 10.2369V11.6985C35.626 11.7455 35.1764 11.9315 34.9034 12.2563C34.6351 12.5764 34.501 13.0942 34.501 13.8096V18.1309ZM43.3128 13.506C43.1387 12.8659 42.8374 12.3716 42.4091 12.0233C41.9807 11.6702 41.4676 11.4937 40.8698 11.4937C40.2579 11.4937 39.7259 11.6749 39.2741 12.0374C38.8269 12.3951 38.5185 12.8847 38.3491 13.506H43.3128ZM38.3067 14.7629C38.4244 15.4125 38.7163 15.9397 39.1823 16.3445C39.653 16.7446 40.2108 16.9446 40.8557 16.9446C41.317 16.9446 41.7359 16.834 42.1125 16.6128C42.4938 16.3915 42.7974 16.0785 43.0233 15.6737H44.5979C44.2402 16.5351 43.7388 17.1941 43.0939 17.6507C42.4538 18.1073 41.7077 18.3356 40.8557 18.3356C40.2814 18.3356 39.7565 18.2344 39.2811 18.032C38.8057 17.8296 38.375 17.526 37.989 17.1212C37.6265 16.7399 37.3417 16.2974 37.1346 15.7937C36.9322 15.2854 36.831 14.7676 36.831 14.2404C36.831 13.6943 36.9228 13.1836 37.1064 12.7082C37.2947 12.2327 37.57 11.7997 37.9325 11.409C38.3185 10.9853 38.7539 10.6676 39.2388 10.4558C39.7236 10.2392 40.2532 10.131 40.8274 10.131C41.51 10.131 42.1431 10.291 42.7268 10.6111C43.3152 10.9265 43.8 11.369 44.1813 11.9385C44.4073 12.2916 44.5744 12.6799 44.6826 13.1036C44.7909 13.5225 44.845 14.0026 44.845 14.544V14.7629H38.3067Z" fill="black"/>
<path d="M54.1398 25.3613H52.6499V16.4647H50.7223V15.0808H56.0603V16.4647H54.1398V25.3613ZM58.3833 25.3613H56.9853V15.0808H58.3833V18.477C58.6093 18.1428 58.9011 17.891 59.2589 17.7215C59.6213 17.5521 60.0426 17.4674 60.5227 17.4674C61.4642 17.4674 62.1962 17.7686 62.7187 18.3711C63.2412 18.9737 63.5024 19.8186 63.5024 20.906V25.3613H62.1044V21.3579C62.1044 20.4964 61.9584 19.8563 61.6666 19.4373C61.3747 19.0184 60.9276 18.8089 60.325 18.8089C59.9579 18.8089 59.6331 18.8936 59.3506 19.0631C59.0682 19.2326 58.8423 19.4773 58.6728 19.7974C58.5693 19.9904 58.4939 20.2258 58.4469 20.5035C58.4045 20.7812 58.3833 21.2237 58.3833 21.8309V25.3613ZM71.2057 20.7365C71.0316 20.0963 70.7303 19.6021 70.302 19.2537C69.8736 18.9007 69.3605 18.7242 68.7627 18.7242C68.1508 18.7242 67.6188 18.9054 67.167 19.2679C66.7198 19.6256 66.4115 20.1152 66.242 20.7365H71.2057ZM66.1996 21.9933C66.3173 22.6429 66.6092 23.1701 67.0752 23.5749C67.5459 23.9751 68.1037 24.1751 68.7486 24.1751C69.2099 24.1751 69.6288 24.0645 70.0054 23.8433C70.3867 23.622 70.6903 23.309 70.9162 22.9042H72.4908C72.1331 23.7656 71.6317 24.4246 70.9869 24.8812C70.3467 25.3378 69.6006 25.5661 68.7486 25.5661C68.1743 25.5661 67.6494 25.4649 67.174 25.2625C66.6986 25.0601 66.2679 24.7565 65.8819 24.3516C65.5194 23.9704 65.2347 23.5279 65.0275 23.0242C64.8251 22.5158 64.7239 21.998 64.7239 21.4708C64.7239 20.9248 64.8157 20.4141 64.9993 19.9386C65.1876 19.4632 65.4629 19.0301 65.8254 18.6394C66.2114 18.2158 66.6468 17.8981 67.1317 17.6862C67.6165 17.4697 68.1461 17.3614 68.7203 17.3614C69.4029 17.3614 70.036 17.5215 70.6197 17.8416C71.2081 18.157 71.6929 18.5994 72.0742 19.169C72.3002 19.522 72.4673 19.9104 72.5755 20.334C72.6838 20.753 72.7379 21.2331 72.7379 21.7744V21.9933H66.1996Z" fill="black"/>
<path d="M82.1842 14H77.3264V3.71947H78.8162V12.5808H82.1842V14ZM84.6979 5.32227H83.314V3.71947H84.6979V5.32227ZM83.314 14V6.23312H84.6979V14H83.314ZM86.4772 14.6214H87.967C88.1836 14.9838 88.466 15.2592 88.8143 15.4475C89.1674 15.6405 89.5698 15.737 90.0217 15.737C90.8078 15.737 91.441 15.4992 91.9211 15.0238C92.4012 14.5531 92.6413 13.927 92.6413 13.1456V13.0468C92.2835 13.4187 91.8834 13.7011 91.441 13.8941C91.0032 14.0824 90.5348 14.1765 90.0359 14.1765C88.8685 14.1765 87.8988 13.7882 87.1268 13.0115C86.3548 12.2301 85.9688 11.2533 85.9688 10.0813C85.9688 9.53522 86.0653 9.01743 86.2583 8.52788C86.4513 8.03833 86.7267 7.60762 87.0844 7.23575C87.4751 6.82622 87.9011 6.52496 88.3624 6.33197C88.8285 6.13427 89.358 6.03541 89.9511 6.03541C90.4783 6.03541 90.9655 6.12956 91.4127 6.31785C91.8646 6.50613 92.2788 6.79092 92.6554 7.1722V6.23312H94.0535V12.7149C94.0535 14.0659 93.7028 15.1227 93.0014 15.8852C92.3 16.6525 91.335 17.0361 90.1065 17.0361C89.2168 17.0361 88.4566 16.8243 87.8258 16.4007C87.1951 15.9817 86.7455 15.3886 86.4772 14.6214ZM87.4163 10.0671C87.4163 10.8532 87.6752 11.5122 88.193 12.0442C88.7155 12.5761 89.3533 12.842 90.1065 12.842C90.7937 12.842 91.3986 12.5761 91.9211 12.0442C92.4483 11.5075 92.7119 10.8815 92.7119 10.166C92.7119 9.40342 92.4506 8.75147 91.9281 8.21014C91.4104 7.66411 90.7937 7.39109 90.0782 7.39109C89.3439 7.39109 88.7155 7.64998 88.193 8.16778C87.6752 8.68557 87.4163 9.31869 87.4163 10.0671ZM97.0825 14H95.6845V3.71947H97.0825V7.11572C97.3085 6.78151 97.6003 6.52967 97.9581 6.36021C98.3205 6.19075 98.7418 6.10602 99.222 6.10602C100.163 6.10602 100.895 6.40728 101.418 7.00981C101.94 7.61233 102.202 8.45727 102.202 9.54463V14H100.804V9.99652C100.804 9.13511 100.658 8.49493 100.366 8.07599C100.074 7.65705 99.6268 7.44758 99.0243 7.44758C98.6571 7.44758 98.3323 7.5323 98.0499 7.70176C97.7674 7.87122 97.5415 8.116 97.372 8.43609C97.2685 8.62908 97.1932 8.86444 97.1461 9.14217C97.1037 9.41989 97.0825 9.86237 97.0825 10.4696V14ZM104.334 14V7.50406H103.24V6.23312H104.334V3.71947H105.725V6.23312H106.826V7.50406H105.725V14H104.334Z" fill="black"/>
<path d="M114.153 21.9699H114.626C115.393 21.9699 115.939 21.8546 116.264 21.6239C116.594 21.3886 116.758 21.0026 116.758 20.466C116.758 19.9905 116.61 19.6399 116.314 19.4139C116.017 19.1833 115.563 19.0679 114.951 19.0679H114.153V21.9699ZM114.139 26.5524H115.311C115.998 26.5524 116.504 26.4253 116.829 26.1711C117.154 25.9122 117.316 25.5144 117.316 24.9778C117.316 24.3941 117.147 23.9517 116.808 23.6504C116.469 23.3491 115.97 23.1985 115.311 23.1985H114.139V26.5524ZM114.887 17.6628C115.984 17.6628 116.817 17.9029 117.387 18.383C117.956 18.8632 118.241 19.5622 118.241 20.4801C118.241 20.9037 118.147 21.278 117.959 21.6028C117.775 21.9276 117.504 22.1959 117.147 22.4077C117.65 22.5583 118.048 22.8478 118.34 23.2762C118.632 23.7045 118.778 24.2153 118.778 24.8084C118.778 25.2885 118.688 25.7404 118.509 26.164C118.331 26.583 118.083 26.9313 117.768 27.209C117.457 27.4726 117.104 27.6609 116.709 27.7739C116.318 27.8869 115.765 27.9434 115.05 27.9434H112.677V17.6628H114.887ZM126.093 23.3185C125.919 22.6784 125.617 22.1841 125.189 21.8358C124.761 21.4827 124.248 21.3062 123.65 21.3062C123.038 21.3062 122.506 21.4874 122.054 21.8499C121.607 22.2076 121.298 22.6972 121.129 23.3185H126.093ZM121.087 24.5754C121.204 25.225 121.496 25.7522 121.962 26.157C122.433 26.5571 122.991 26.7571 123.636 26.7571C124.097 26.7571 124.516 26.6465 124.892 26.4253C125.274 26.204 125.577 25.891 125.803 25.4862H127.378C127.02 26.3476 126.519 27.0066 125.874 27.4632C125.234 27.9198 124.488 28.1481 123.636 28.1481C123.061 28.1481 122.536 28.0469 122.061 27.8445C121.586 27.6421 121.155 27.3385 120.769 26.9337C120.406 26.5524 120.122 26.1099 119.915 25.6062C119.712 25.0979 119.611 24.5801 119.611 24.0529C119.611 23.5068 119.703 22.9961 119.886 22.5207C120.075 22.0452 120.35 21.6122 120.712 21.2215C121.098 20.7978 121.534 20.4801 122.019 20.2683C122.503 20.0517 123.033 19.9435 123.607 19.9435C124.29 19.9435 124.923 20.1035 125.507 20.4236C126.095 20.739 126.58 21.1815 126.961 21.751C127.187 22.1041 127.354 22.4924 127.463 22.9161C127.571 23.335 127.625 23.8151 127.625 24.3565V24.5754H121.087ZM128.959 28.5647H130.449C130.666 28.9272 130.948 29.2025 131.297 29.3908C131.65 29.5838 132.052 29.6803 132.504 29.6803C133.29 29.6803 133.923 29.4426 134.403 28.9672C134.883 28.4965 135.124 27.8704 135.124 27.089V26.9902C134.766 27.362 134.366 27.6445 133.923 27.8374C133.485 28.0257 133.017 28.1199 132.518 28.1199C131.351 28.1199 130.381 27.7315 129.609 26.9548C128.837 26.1735 128.451 25.1967 128.451 24.0246C128.451 23.4786 128.548 22.9608 128.741 22.4712C128.934 21.9817 129.209 21.551 129.567 21.1791C129.957 20.7696 130.383 20.4683 130.845 20.2753C131.311 20.0776 131.84 19.9788 132.433 19.9788C132.961 19.9788 133.448 20.0729 133.895 20.2612C134.347 20.4495 134.761 20.7343 135.138 21.1156V20.1765H136.536V26.6583C136.536 28.0093 136.185 29.066 135.484 29.8286C134.782 30.5959 133.817 30.9795 132.589 30.9795C131.699 30.9795 130.939 30.7677 130.308 30.344C129.677 29.9251 129.228 29.332 128.959 28.5647ZM129.899 24.0105C129.899 24.7966 130.157 25.4556 130.675 25.9875C131.198 26.5194 131.836 26.7854 132.589 26.7854C133.276 26.7854 133.881 26.5194 134.403 25.9875C134.931 25.4509 135.194 24.8248 135.194 24.1093C135.194 23.3468 134.933 22.6948 134.41 22.1535C133.893 21.6075 133.276 21.3344 132.56 21.3344C131.826 21.3344 131.198 21.5933 130.675 22.1111C130.157 22.6289 129.899 23.262 129.899 24.0105ZM139.551 19.2656H138.167V17.6628H139.551V19.2656ZM138.167 27.9434V20.1765H139.551V27.9434H138.167ZM142.615 27.9434H141.217V20.1765H142.559V21.0591C142.85 20.7107 143.17 20.4566 143.519 20.2965C143.872 20.1318 144.274 20.0494 144.726 20.0494C145.743 20.0494 146.522 20.3483 147.063 20.9461C147.609 21.5439 147.882 22.4006 147.882 23.5162V27.9434H146.477V23.8199C146.477 22.9961 146.324 22.3865 146.018 21.9911C145.712 21.591 145.239 21.3909 144.599 21.3909C143.902 21.3909 143.396 21.6263 143.081 22.097C142.77 22.563 142.615 23.335 142.615 24.413V27.9434ZM148.984 25.4297H150.297C150.297 25.8392 150.41 26.1782 150.636 26.4465C150.867 26.7101 151.154 26.8419 151.498 26.8419C151.822 26.8419 152.088 26.743 152.295 26.5453C152.507 26.3429 152.613 26.0864 152.613 25.7757C152.613 25.5027 152.538 25.272 152.387 25.0837C152.241 24.8954 152.004 24.7354 151.674 24.6036C151.561 24.5565 151.401 24.4953 151.194 24.42C150.643 24.2129 150.292 24.0481 150.142 23.9258C149.864 23.7045 149.659 23.455 149.528 23.1773C149.396 22.8949 149.33 22.5701 149.33 22.2029C149.33 21.5722 149.549 21.0355 149.986 20.5931C150.429 20.1506 150.968 19.9293 151.603 19.9293C152.267 19.9293 152.794 20.1247 153.185 20.5154C153.576 20.9014 153.79 21.4451 153.828 22.1464H152.486C152.462 21.8593 152.368 21.6357 152.204 21.4757C152.039 21.3156 151.818 21.2356 151.54 21.2356C151.29 21.2356 151.081 21.3227 150.911 21.4968C150.747 21.6663 150.664 21.8781 150.664 22.1323C150.664 22.5654 151.041 22.9208 151.794 23.1985C152.006 23.2785 152.173 23.3421 152.295 23.3891C152.888 23.6292 153.31 23.9281 153.559 24.2859C153.813 24.6436 153.941 25.1214 153.941 25.7192C153.941 26.4159 153.705 26.9949 153.234 27.4562C152.764 27.9175 152.171 28.1481 151.455 28.1481C150.735 28.1481 150.154 27.9057 149.711 27.4209C149.269 26.936 149.026 26.2723 148.984 25.4297Z" fill="black"/>
</svg>
