<svg width="260" height="260" viewBox="0 0 260 260" fill="none" xmlns="http://www.w3.org/2000/svg">
<path d="M130 43.6955L148.047 45.5858L165.308 51.17L181.017 60.1872L194.497 72.2681L205.16 86.8695L212.544 103.339L216.324 120.983V139.017L212.544 156.661L205.16 173.152L194.497 187.754L181.017 199.835L165.308 208.852L148.047 214.436L130 216.326L111.953 214.436L94.6924 208.852L78.9832 199.835L65.5025 187.754L54.8403 173.152L47.4555 156.661L43.6757 139.017V120.983L47.4555 103.339L54.8403 86.8695L65.5025 72.2681L78.9832 60.1872L94.6924 51.17L111.953 45.5858L130 43.6955ZM130 0L102.82 2.8464L76.8202 11.2335L53.158 24.8136L32.8605 43.0002L16.8017 64.9891L5.68068 89.8245L0 116.398V143.58L5.68068 170.154L16.8017 194.989L32.8605 216.978L53.158 235.165L76.8202 248.745L102.82 257.154L130 260L157.18 257.154L183.18 248.745L206.842 235.165L227.139 216.978L243.198 194.989L254.319 170.154L260 143.58V116.398L254.319 89.8245L243.198 64.9891L227.139 43.0002L206.842 24.8136L183.18 11.2335L157.18 2.8464L130 0Z" fill="#FDFF00"/>
<path d="M129.987 87.3901L121.094 88.3245L112.573 91.0839L104.817 95.5382L98.1533 101.492L92.8878 108.684L89.239 116.832L87.3818 125.545V134.453L89.239 143.167L92.8878 151.293L98.1533 158.507L104.817 164.46L112.573 168.914L121.094 171.674L129.987 172.608L138.901 171.674L147.422 168.914L155.178 164.46L161.821 158.507L167.086 151.293L170.735 143.167L172.592 134.453V125.545L170.735 116.832L167.086 108.684L161.821 101.492L155.178 95.5382L147.422 91.0839L138.901 88.3245L129.987 87.3901Z" fill="#FDFF00"/>
</svg>
