<svg width="260" height="260" viewBox="0 0 260 260" fill="none" xmlns="http://www.w3.org/2000/svg">
<path d="M90.0796 64.3519C67.38 39.7134 53.5467 22.6343 55.3548 20.8044L20.8044 55.3548C22.6343 53.5249 39.7135 67.38 64.3519 90.0796C72.9351 97.9874 67.0096 112.3 55.3331 111.821C21.8718 110.448 0 108.161 0 105.568V154.431C0 151.839 21.8718 149.574 55.3331 148.179C67.0096 147.7 72.9351 162.013 64.3519 169.92C39.7135 192.62 22.6343 206.453 20.8044 204.645L55.3548 239.196C53.5249 237.366 67.38 220.287 90.0796 195.648C97.9874 187.065 112.3 192.99 111.821 204.667C110.448 238.128 108.161 260 105.568 260H154.432C151.839 260 149.574 238.128 148.179 204.667C147.7 192.99 162.013 187.065 169.92 195.648C192.62 220.287 206.453 237.366 204.645 239.196L239.196 204.645C237.366 206.475 220.287 192.62 195.648 169.92C187.065 162.013 192.99 147.7 204.667 148.179C238.128 149.552 260 151.839 260 154.431V105.568C260 108.161 238.128 110.426 204.667 111.821C192.99 112.3 187.065 97.9874 195.648 90.0796C220.287 67.38 237.366 53.5467 239.196 55.3548L204.645 20.8044C206.475 22.6343 192.62 39.7134 169.92 64.3519C162.013 72.9351 147.7 67.0096 148.179 55.333C149.552 21.8718 151.839 0 154.432 0H105.568C108.161 0 110.426 21.8718 111.821 55.333C112.3 67.0096 97.9874 72.9351 90.0796 64.3519Z" fill="#37F6FF"/>
</svg>
