<svg width="260" height="261" viewBox="0 0 260 261" fill="none" xmlns="http://www.w3.org/2000/svg">
<path d="M70.916 213.568V260.847H118.193V213.568H70.916Z" fill="#FF586F"/>
<path d="M70.916 142.66V189.939H118.193V142.66H70.916Z" fill="#FF586F"/>
<path d="M70.916 71.7639V119.043H118.193V71.7639H70.916Z" fill="#FF586F"/>
<path d="M70.916 0.847862V48.127H118.193V0.847862H70.916Z" fill="#FF586F"/>
<path d="M0 142.66L0 189.939H47.2772V142.66H0Z" fill="#FF586F"/>
<path d="M0.0380859 71.7638L0.0380859 119.043H47.3153V71.7638H0.0380859Z" fill="#FF586F"/>
<path d="M141.823 213.568V260.847H189.1V213.568H141.823Z" fill="#FF586F"/>
<path d="M141.798 142.66V189.939H189.075V142.66H141.798Z" fill="#FF586F"/>
<path d="M141.823 71.7639V119.043H189.1V71.7639H141.823Z" fill="#FF586F"/>
<path d="M141.823 0.847862V48.127H189.1V0.847862H141.823Z" fill="#FF586F"/>
<path d="M212.685 142.66V189.939H259.962V142.66H212.685Z" fill="#FF586F"/>
<path d="M212.723 71.7639V119.043H260V71.7639H212.723Z" fill="#FF586F"/>
</svg>
